HIERARCHY
ROOT Hips
{
OFFSET -0.1795 -22.3333 2.8219000000000003
	CHANNELS 6 Xposition Yposition Zposition Zrotation Yrotation Xrotation 
	JOINT LeftUpLeg
	{
OFFSET 6.952 -9.140600000000001 -0.6815
		CHANNELS 3 Zrotation Yrotation Xrotation
		JOINT LeftLeg
		{
OFFSET 3.4277 -37.5199 -0.4496
			CHANNELS 3 Zrotation Yrotation Xrotation
			JOINT LeftFoot
			{
OFFSET -1.3596000000000001 -39.7961 -4.3693
				CHANNELS 3 Zrotation Yrotation Xrotation
				JOINT LeftToe
				{
OFFSET 2.6358 -5.5791 11.9288
					CHANNELS 3 Zrotation Yrotation Xrotation
					End Site
					{
OFFSET 0.0 0.0 0.0
					}
				}
			}
		}
	}
	JOINT RightUpLeg
	{
OFFSET -6.7669999999999995 -9.052200000000001 -0.432
		CHANNELS 3 Zrotation Yrotation Xrotation
		JOINT RightLeg
		{
OFFSET -3.8289999999999997 -38.2569 -0.885
			CHANNELS 3 Zrotation Yrotation Xrotation
			JOINT RightFoot
			{
OFFSET 1.5774 -39.8415 -4.2312
				CHANNELS 3 Zrotation Yrotation Xrotation
				JOINT RightToe
				{
OFFSET -2.5372 -4.8144 12.3348
					CHANNELS 3 Zrotation Yrotation Xrotation
					End Site
					{
OFFSET 0.0 0.0 0.0
					}
				}
			}
		}
	}
	JOINT Spine
	{
OFFSET -0.2533 10.8963 -2.6696
		CHANNELS 3 Zrotation Yrotation Xrotation
		JOINT Spine1
		{
OFFSET 0.5487 13.517999999999999 0.1092
			CHANNELS 3 Zrotation Yrotation Xrotation
			JOINT Spine2
			{
OFFSET 0.1457 5.292199999999999 2.5425
				CHANNELS 3 Zrotation Yrotation Xrotation
				JOINT Neck
				{
OFFSET -0.2778 21.387 -4.2857
					CHANNELS 3 Zrotation Yrotation Xrotation
					JOINT Head
					{
OFFSET 0.5152 6.497 5.1349
						CHANNELS 3 Zrotation Yrotation Xrotation
						End Site
						{
OFFSET 0.0 0.0 0.0
						}
					}
				}
				JOINT LeftShoulder
				{
OFFSET 7.8845 12.1749 -3.4090000000000003
					CHANNELS 3 Zrotation Yrotation Xrotation
					JOINT LeftArm
					{
OFFSET 9.0977 3.0469 -0.8867999999999999
						CHANNELS 3 Zrotation Yrotation Xrotation
						JOINT LeftForeArm
						{
OFFSET 25.9612 -1.2772000000000001 -2.7456
							CHANNELS 3 Zrotation Yrotation Xrotation
							JOINT LeftHand
							{
OFFSET 24.9234 0.8986 -0.1171
								CHANNELS 3 Zrotation Yrotation Xrotation
								End Site
								{
OFFSET 0.0 0.0 0.0
								}
							}
						}
					}
				}
				JOINT RightShoulder
				{
OFFSET -8.1759 11.8833 -3.8614999999999995
					CHANNELS 3 Zrotation Yrotation Xrotation
					JOINT RightArm
					{
OFFSET -9.6012 3.2550999999999997 -0.9143
						CHANNELS 3 Zrotation Yrotation Xrotation
						JOINT RightForeArm
						{
OFFSET -25.374200000000002 -1.3329 -2.1401
							CHANNELS 3 Zrotation Yrotation Xrotation
							JOINT RightHand
							{
OFFSET -25.5298 0.7772 -0.5559
								CHANNELS 3 Zrotation Yrotation Xrotation
								End Site
								{
OFFSET 0.0 0.0 0.0
								}
							}
						}
					}
				}
			}
		}
	}
}
MOTION
Frames: 7
Frame Time: 0.050000
0.0437 99.8599 -2.7196000000000002 -2.598114 -24.440055 7.773361 3.345448 0.164666 -26.636157 -0.452559 0.691028 18.562672 9.736923 17.289259 14.466587 0.000000 0.000000 0.000000 3.444361 -0.047037 -1.907582 4.806243 -0.112822 4.601123 -7.156216 -14.364003 -2.404845 0.000000 0.000000 0.000000 -6.810841 1.414411 17.985696 6.859663 -1.967065 -17.133829 2.663358 6.193015 27.012663 -1.429768 1.331563 -30.433137 0.000000 0.000000 0.000000 -9.171456 -13.068986 6.646451 -23.532204 -45.805836 3.495115 44.441764 -31.717595 -9.772951 0.000000 0.000000 0.000000 -8.200475 22.103883 6.527583 35.672969 47.171157 6.923933 -40.454091 46.809592 -16.457656 0.000000 0.000000 0.000000
-0.5294 99.7403 -0.7355999999999999 -2.826983 -28.279445 7.977519 3.950303 1.217730 -31.514932 -1.075833 1.623026 23.911527 10.819828 18.181453 16.652999 0.000000 0.000000 0.000000 3.333331 -0.120600 -1.379824 4.936110 0.025404 7.263588 -7.768185 -13.865613 -4.760666 0.000000 0.000000 0.000000 -9.177900 2.518570 20.513922 9.606297 -2.463147 -18.706087 1.907358 9.769206 26.995045 -1.206304 1.481067 -28.363867 0.000000 0.000000 0.000000 -6.298790 -14.842989 6.606077 -16.336131 -45.486878 1.310531 52.317473 -31.972557 -12.742072 0.000000 0.000000 0.000000 -11.744759 22.219246 6.022128 18.705082 52.484744 1.877715 -51.387940 48.032459 -22.306391 0.000000 0.000000 0.000000
-1.3478 99.0705 1.5813000000000001 -2.439163 -32.290792 9.589806 4.477855 3.355545 -39.999848 -1.311850 2.545611 29.281782 9.166852 15.197490 20.309416 0.000000 0.000000 0.000000 2.087069 0.028732 -2.402625 4.541660 0.341409 10.888890 -6.545131 -10.027590 -5.504088 0.000000 0.000000 0.000000 -10.127373 3.269448 21.436110 8.304351 -2.400341 -16.391945 0.345834 11.345794 23.600306 -2.477976 2.206475 -28.031732 0.000000 0.000000 0.000000 -3.726791 -14.271733 5.874412 -11.598653 -44.309447 0.113243 57.856471 -35.382953 -16.346818 0.000000 0.000000 0.000000 -16.955920 22.938044 5.680358 -1.511332 57.412438 -7.079568 -58.570260 41.468546 -22.271770 0.000000 0.000000 0.000000
-2.4689 97.9405 4.2632 -2.055842 -36.219382 10.480941 4.742275 5.239365 -44.287774 -1.760780 2.465700 26.730956 6.774317 11.530095 20.762038 0.000000 0.000000 0.000000 0.185624 0.105402 -1.753115 5.076116 0.575233 13.382705 -5.740175 -6.976520 -6.221478 0.000000 0.000000 0.000000 -12.205012 5.198765 25.256256 8.357737 -2.298684 -17.525181 -0.703548 14.693311 23.093197 1.854087 0.289585 -28.375806 0.000000 0.000000 0.000000 -0.490704 -14.288067 5.214401 -9.044049 -44.842384 -0.656134 61.644925 -33.969749 -17.434622 0.000000 0.000000 0.000000 -17.817322 21.722940 5.111461 -19.524734 59.280516 -15.964924 -60.883984 39.147155 -21.594842 0.000000 0.000000 0.000000
-4.0618 96.0117 7.342899999999999 -2.079328 -37.083723 12.025443 3.529826 6.279829 -49.747744 -1.258214 1.914940 25.721519 4.158995 8.250701 21.485050 0.000000 0.000000 0.000000 2.197814 -0.035242 -2.162380 1.717206 1.453200 16.624005 -5.884850 -6.660749 -6.706875 0.000000 0.000000 0.000000 -14.712734 7.218424 27.973756 8.119197 -2.287584 -16.522751 -0.581165 14.645038 22.413482 3.209284 -0.370910 -27.902706 0.000000 0.000000 0.000000 -1.401567 -14.812207 5.526950 -4.134958 -46.930860 -2.278484 58.301613 -32.593658 -15.664617 0.000000 0.000000 0.000000 -19.283265 22.141296 5.012553 -27.400184 58.125491 -19.412736 -65.451629 38.455575 -23.012088 0.000000 0.000000 0.000000
-6.178999999999999 93.5846 11.040700000000001 -4.778238 -36.501330 16.570258 2.855375 7.546416 -55.734569 -1.892774 2.223810 28.585530 4.712734 9.135674 18.832372 0.000000 0.000000 0.000000 5.971165 -0.194209 -3.099949 -0.484989 2.776230 21.470885 -5.660863 -3.489114 -9.597592 0.000000 0.000000 0.000000 -14.514226 8.619084 32.090889 6.601524 -1.774993 -17.693767 -0.142221 16.476857 21.881638 9.296686 -2.746663 -30.280907 0.000000 0.000000 0.000000 -1.344866 -18.125949 6.647746 -2.025129 -49.313635 -3.414820 54.997595 -27.994422 -12.630446 0.000000 0.000000 0.000000 -17.258512 18.393275 4.440337 -26.146432 59.270906 -18.314505 -67.275741 41.298199 -24.956589 0.000000 0.000000 0.000000
-8.9112 90.3799 15.559000000000001 -6.938130 -37.434741 19.788667 0.697686 8.549182 -61.948985 -0.060195 2.206142 37.484771 3.803973 8.205297 16.975227 0.000000 0.000000 0.000000 9.201004 -0.267857 -3.694696 -3.651771 5.136578 27.096472 -6.577384 -4.236947 -11.156571 0.000000 0.000000 0.000000 -17.785390 12.281553 36.017960 7.744274 -2.276609 -14.254213 -2.122428 16.554169 18.342837 9.809311 -2.592444 -30.203981 0.000000 0.000000 0.000000 2.111080 -15.935187 5.432359 -0.934775 -54.031684 -4.241630 47.060618 -23.828739 -8.795442 0.000000 0.000000 0.000000 -13.975954 17.596457 4.783811 -21.758597 60.174074 -15.740880 -65.308961 44.183188 -25.059566 0.000000 0.000000 0.000000
